PathFileType	4	(X/Y/Z)	./resultDataOpenSim/trcMotMarkerGrf/sub09/qtm-03-06.trc
DataRate	CameraRate	NumFrames	NumMarkers	Units	OrigDataRate	OrigDataStartFrame	OrigNumFrames
250.000000	250.000000	11	24	m	250.000000	370	492
Frame#	Time	L.Toe.Tip			R.Toe.Tip			L.Ankle.Lat			R.Ankle.Lat			L.Ankle.Med			R.Ankle.Med			L.Heel			R.Heel			L.Knee.Lat			R.Knee.Lat			L.Knee.Med			R.Knee.Med			L.Thigh.Upper			R.Thigh.Upper			L.ASIS			R.ASIS			V.Sacral			L.Acromium			R.Acromium			C7			L.Elbow			R.Elbow			L.Wrist.Lat			R.Wrist.Lat
		X1	Y1	Z1	X2	Y2	Z2	X3	Y3	Z3	X4	Y4	Z4	X5	Y5	Z5	X6	Y6	Z6	X7	Y7	Z7	X8	Y8	Z8	X9	Y9	Z9	X10	Y10	Z10	X11	Y11	Z11	X12	Y12	Z12	X13	Y13	Z13	X14	Y14	Z14	X15	Y15	Z15	X16	Y16	Z16	X17	Y17	Z17	X18	Y18	Z18	X19	Y19	Z19	X20	Y20	Z20	X21	Y21	Z21	X22	Y22	Z22	X23	Y23	Z23	X24	Y24	Z24

370	1.476	0.78495822	0.12756194	0.026475195	0.98005117	0.039235875	0.12683722	0.70767703	0.2601798	-1.9866735e-06	0.83390671	0.056109867	0.17238364	0.7383797	0.24969814	0.093361878	0.84058533	0.098057945	0.081602021	0.63172241	0.28040181	0.050286583	0.76252586	0.039608113	0.12678034	1.0271434	0.51000571	-0.031366825	0.94468515	0.50133043	0.23612656	1.0315793	0.50135816	0.094714563	0.91459836	0.49442324	0.11221198	0.86633453	0.89250801	-0.056889915	0.88907076	0.90635019	0.31130378	0.9409249	0.98101594	-0.0046652251	0.96763507	0.99129691	0.23160375	0.78888895	1.0419309	0.1262735	0.92673779	1.4349664	-0.062217523	0.93534142	1.4534442	0.2692174	0.86050095	1.4914796	0.10622108	0.7880178	1.0913231	-0.087960145	0.81264708	1.1129915	0.37142762	0.89505781	0.85653888	-0.13852623	0.97771247	0.89145061	0.35868632
371	1.48	0.8023753	0.12605092	0.025206998	0.98009316	0.039195221	0.12687831	0.7220305	0.25677619	-0.0007343006	0.83395613	0.056446547	0.17217169	0.75363083	0.24661102	0.092214158	0.84103056	0.098402918	0.081459641	0.64563673	0.27524358	0.049528157	0.76286644	0.040010545	0.12663044	1.0370841	0.51266353	-0.031456386	0.94565648	0.50144176	0.23600624	1.0438385	0.50425335	0.095111935	0.91595794	0.49477586	0.11218809	0.87280657	0.89377124	-0.057374963	0.89446956	0.90712425	0.3108254	0.94673475	0.98225726	-0.0046830582	0.97304756	0.99204885	0.23157057	0.79387011	1.0425794	0.12578014	0.93194239	1.4358427	-0.062389585	0.94088971	1.4544483	0.26902033	0.86590153	1.4923939	0.10610429	0.79176502	1.0929112	-0.088355991	0.81850717	1.1138501	0.37155795	0.89733047	0.85763267	-0.13971643	0.98434233	0.89287862	0.358137
372	1.484	0.81983781	0.12446498	0.024083259	0.98013253	0.039148928	0.12692198	0.73652371	0.25317036	-0.0014690154	0.8340321	0.056784942	0.17195468	0.76904749	0.24340334	0.09112025	0.84144511	0.098786093	0.081415574	0.65974094	0.26986381	0.048652141	0.76320899	0.040349385	0.12647051	1.0467698	0.51526006	-0.031599041	0.94668802	0.50156012	0.2360052	1.0576146	0.50713662	0.095914552	0.91743551	0.49511868	0.11228133	0.87938878	0.89496566	-0.057921634	0.89989512	0.90787896	0.31032235	0.95256727	0.98344039	-0.0047289885	0.97844371	0.99275184	0.23153356	0.79837867	1.0430219	0.1251605	0.93716267	1.4366511	-0.062564064	0.94644168	1.4553824	0.26883138	0.87131476	1.4932436	0.10598773	0.7955186	1.0944439	-0.088766374	0.82436448	1.1146423	0.37169935	0.89964446	0.85868499	-0.14088892	0.99095845	0.89423993	0.35758454
373	1.488	0.83745051	0.12284556	0.02308781	0.98018289	0.039098112	0.12696832	0.75115136	0.24936313	-0.0022099851	0.83420062	0.057118408	0.17171609	0.78433672	0.24006317	0.090181743	0.84181477	0.099201918	0.081419288	0.67405097	0.26422698	0.047644777	0.76345853	0.040696484	0.12618767	1.0562991	0.51777119	-0.031784511	0.94783526	0.50170013	0.2361526	1.070733	0.5098791	0.09654632	0.9191349	0.49530114	0.11259612	0.88597242	0.89608729	-0.058475423	0.90534053	0.9086284	0.30977917	0.95843437	0.98455812	-0.0048042453	0.98382278	0.99341251	0.231487	0.80278356	1.043373	0.1245163	0.94239232	1.4373944	-0.062740696	0.95199303	1.4562461	0.26864798	0.87674396	1.4940362	0.10587515	0.79928915	1.0959221	-0.089182041	0.8302253	1.1153657	0.37184007	0.9019926	0.85969732	-0.14204557	0.99755945	0.89553277	0.35703145
374	1.492	0.8553163	0.12118461	0.022186276	0.98026589	0.039056386	0.12701147	0.76591222	0.24535542	-0.0029662188	0.83447944	0.057451302	0.17144947	0.7994347	0.23658445	0.089374762	0.84207482	0.09964361	0.081383546	0.68853125	0.25833092	0.046577718	0.76358738	0.041127111	0.12578236	1.0657375	0.52016533	-0.031985523	0.94909768	0.50186665	0.23642732	1.0807436	0.51234437	0.096321624	0.92103592	0.49527138	0.11315528	0.89249243	0.89713443	-0.058998253	0.91075922	0.90936869	0.30920863	0.96434765	0.98560132	-0.0049196682	0.98918549	0.99402847	0.23142634	0.80766762	1.0438275	0.12400193	0.94763084	1.4380736	-0.062916725	0.95753895	1.4570391	0.26846719	0.88218554	1.4947808	0.10576842	0.80308215	1.0973404	-0.089597534	0.83608364	1.1160154	0.3719673	0.90438365	0.86066743	-0.14319433	1.0041478	0.89675869	0.35648206
375	1.496	0.87343123	0.11943769	0.021333822	0.98041869	0.039047037	0.12703247	0.78082361	0.2411525	-0.0037488528	0.83478799	0.057804428	0.17119106	0.81448822	0.23297981	0.088619915	0.8422033	0.10011809	0.081297928	0.70311641	0.25220245	0.045553192	0.76366866	0.041678334	0.12538058	1.0750899	0.52242773	-0.032187714	0.95040061	0.50203258	0.23677252	1.0880188	0.51456095	0.095299573	0.92298397	0.49514407	0.11379869	0.89901295	0.89810642	-0.059510248	0.91600563	0.91004092	0.30870571	0.97031059	0.98656337	-0.0050859692	0.99453583	0.99459121	0.23135412	0.81328863	1.0444784	0.1236666	0.95287884	1.4386892	-0.063093419	0.96307887	1.4577598	0.26828622	0.8876339	1.4954746	0.10566796	0.80689187	1.0986949	-0.09001111	0.8419287	1.1165879	0.37207376	0.90682565	0.86159378	-0.1443383	1.0107234	0.89791716	0.35593813
376	1.5	0.89167874	0.11757073	0.020507986	0.98065858	0.039064629	0.12701228	0.79591551	0.23676551	-0.0045646667	0.83507021	0.058189726	0.17098045	0.82958709	0.22927123	0.087878554	0.84232316	0.10063251	0.081229028	0.71780069	0.24587187	0.044582056	0.76378747	0.042323011	0.12509344	1.0843163	0.52456617	-0.032404039	0.95165089	0.50216681	0.23711548	1.0949525	0.51666715	0.094157298	0.92479463	0.495091	0.11428164	0.90561154	0.89899745	-0.060036674	0.92081674	0.91051683	0.30846781	0.97629276	0.9874408	-0.005288146	0.99987511	0.99509693	0.23127283	0.81938906	1.0452339	0.12338538	0.95813768	1.4392441	-0.06327161	0.96861684	1.4584052	0.26810499	0.89309348	1.4961158	0.10557169	0.81070662	1.0999868	-0.090426214	0.84775759	1.1170835	0.37215989	0.90932466	0.86247816	-0.14547309	1.017283	0.89900403	0.35539689
377	1.504	0.9099696	0.11559791	0.019719067	0.98094749	0.039065344	0.12695582	0.81119868	0.23221349	-0.0054052997	0.83537535	0.05859186	0.17081497	0.84470445	0.22547616	0.087159909	0.8425922	0.10116278	0.081239282	0.73266496	0.23935534	0.043589979	0.76396006	0.042993936	0.12492221	1.0933835	0.52656581	-0.032635147	0.95281748	0.50227448	0.23741642	1.1028244	0.51872821	0.093346781	0.92639868	0.49520423	0.1145263	0.91217583	0.89979586	-0.060543568	0.92502528	0.91069236	0.30864341	0.98224292	0.9882363	-0.0054914367	1.005202	0.99555311	0.23118089	0.82551199	1.0459201	0.12300243	0.96341046	1.4397416	-0.063448991	0.97415922	1.4589756	0.26792705	0.89856735	1.4967017	0.10547462	0.81452746	1.1012133	-0.090845265	0.85357741	1.1175052	0.37223888	0.91188794	0.86332299	-0.14659255	1.023826	0.90001918	0.35485502
378	1.508	0.92828887	0.11357461	0.018998608	0.98122765	0.039027402	0.1268954	0.82663872	0.22751969	-0.006238549	0.83568635	0.058995188	0.17069491	0.85983154	0.22159615	0.086472018	0.84306704	0.10165423	0.081365855	0.74777582	0.232663	0.042540258	0.76413717	0.043649718	0.12479197	1.1022908	0.52839335	-0.032856311	0.9539232	0.50238919	0.23766904	1.1113513	0.52071603	0.09285211	0.92786199	0.49549098	0.11465577	0.91846876	0.90049468	-0.060968668	0.92888001	0.91065765	0.3090827	0.98814047	0.98895947	-0.0056756131	1.0105189	0.99597275	0.23108074	0.83139052	1.0464322	0.1224934	0.96869947	1.4401838	-0.063625461	0.97971139	1.4594756	0.26775457	0.90405382	1.4972199	0.10537704	0.81837013	1.1023674	-0.091263755	0.85940147	1.1178593	0.3723339	0.91451732	0.86412879	-0.14769455	1.0303585	0.90097022	0.35431276
379	1.512	0.94662839	0.11154635	0.018375115	0.98146427	0.0389927	0.12687716	0.84218921	0.22269949	-0.0070315884	0.83586317	0.059406626	0.17065023	0.87504827	0.21761734	0.085787207	0.84366648	0.10206261	0.081609908	0.76310888	0.22581719	0.041472298	0.76424887	0.044305571	0.12461883	1.1110313	0.53005583	-0.033059009	0.9549949	0.50254029	0.23786419	1.1200112	0.52259003	0.092506842	0.92926091	0.495932	0.11478651	0.92441335	0.90109666	-0.061294772	0.9328957	0.91065398	0.3094208	0.9940086	0.98961612	-0.0058453048	1.0158311	0.99636356	0.23098103	0.83704178	1.0467752	0.1219324	0.97400503	1.4405706	-0.06380167	0.98527303	1.4599095	0.2675845	0.90955236	1.4976643	0.10528393	0.82225102	1.103451	-0.091675301	0.86523852	1.1181532	0.37245626	0.91720776	0.86489486	-0.14878045	1.0368868	0.90186392	0.35377229
380	1.516	0.9649895	0.10951777	0.017840264	0.98162409	0.03901815	0.12695345	0.85784617	0.2177571	-0.007784998	0.83586041	0.05983655	0.17068392	0.89042676	0.21354213	0.085074614	0.84419538	0.1023895	0.081875653	0.77861194	0.21884957	0.040426756	0.76425353	0.045002501	0.12436333	1.1195746	0.53159332	-0.033267108	0.95605638	0.50274058	0.23800068	1.128558	0.52432621	0.092201016	0.93058093	0.49649706	0.11488044	0.93016098	0.90160601	-0.061560376	0.93732468	0.91081629	0.30946169	0.99988042	0.99020309	-0.006013109	1.0211408	0.99672237	0.23088641	0.842588	1.0470002	0.12137694	0.97932597	1.4409007	-0.063978711	0.99084006	1.4602779	0.26741299	0.91505539	1.4980417	0.10519127	0.82618307	1.1044764	-0.092081557	0.87107512	1.1183848	0.37258867	0.91995719	0.86562002	-0.14985054	1.0434118	0.90269931	0.35323396
